<svg xmlns="http://www.w3.org/2000/svg" version="1.1" xmlns:xlink="http://www.w3.org/1999/xlink" xmlns:svgjs="http://svgjs.dev/svgjs" width="1000" height="1000"><g clip-path="url(#SvgjsClipPath1151)"><rect width="1000" height="1000" fill="#5fe7dc"></rect><g transform="matrix(12.5,0,0,12.5,100,100)"><svg xmlns="http://www.w3.org/2000/svg" version="1.1" xmlns:xlink="http://www.w3.org/1999/xlink" xmlns:svgjs="http://svgjs.dev/svgjs" width="64" height="64"><svg xmlns="http://www.w3.org/2000/svg" viewBox="0 0 64 64" width="64" height="64">
  <!-- Background -->
  <rect x="4" y="4" width="56" height="56" rx="8" fill="#546e7a"></rect>
  
  <!-- Calendar Page -->
  <rect x="12" y="12" width="40" height="40" rx="2" fill="#ffffff"></rect>
  
  <!-- Calendar Header Bar -->
  <rect x="12" y="12" width="40" height="8" rx="1" fill="#5d89ba"></rect>
  
  <!-- Calendar Lines -->
  <line x1="12" y1="28" x2="52" y2="28" stroke="#e0e2e7" stroke-width="1"></line>
  <line x1="12" y1="36" x2="52" y2="36" stroke="#e0e2e7" stroke-width="1"></line>
  <line x1="12" y1="44" x2="52" y2="44" stroke="#e0e2e7" stroke-width="1"></line>
  
  <!-- Calendar Vertical Dividers -->
  <line x1="22" y1="20" x2="22" y2="52" stroke="#e0e2e7" stroke-width="1"></line>
  <line x1="32" y1="20" x2="32" y2="52" stroke="#e0e2e7" stroke-width="1"></line>
  <line x1="42" y1="20" x2="42" y2="52" stroke="#e0e2e7" stroke-width="1"></line>
  
  <!-- Film Slate Element -->
  <rect x="16" y="22" width="12" height="4" rx="1" fill="#ffd8e6"></rect>
  <rect x="36" y="30" width="12" height="4" rx="1" fill="#e6ffd8"></rect>
  <rect x="24" y="38" width="12" height="4" rx="1" fill="#d4e9ff"></rect>
  
  <!-- Clapperboard Top Bar -->
  <rect x="36" y="16" width="12" height="2" rx="1" fill="#2d3142"></rect>
  <path d="M36,16 L48,18 L48,16 Z" fill="#2d3142"></path>
</svg></svg></g></g><defs><clipPath id="SvgjsClipPath1151"><rect width="1000" height="1000" x="0" y="0" rx="350" ry="350"></rect></clipPath></defs></svg>